<?xml version="1.0" encoding="utf-8"?>
<!-- Generator: Adobe Illustrator 21.0.1, SVG Export Plug-In . SVG Version: 6.00 Build 0)  -->
<svg version="1.1" id="Слой_1" xmlns="http://www.w3.org/2000/svg" xmlns:xlink="http://www.w3.org/1999/xlink" x="0px" y="0px"
	 viewBox="0 0 1090 600" style="enable-background:new 0 0 1090 600;" xml:space="preserve">
<g>
	<path class="st0" d="M172.4,348.5H134c-9.4,0-17-7.6-17-17v-38.4c0-9.4,7.6-17,17-17h38.4c9.4,0,17,7.6,17,17v38.4
		C189.4,340.9,181.8,348.5,172.4,348.5z M134,281.1c-6.6,0-12,5.4-12,12v38.4c0,6.6,5.4,12,12,12h38.4c6.6,0,12-5.4,12-12v-38.4
		c0-6.6-5.4-12-12-12H134z"/>
	<path class="st0" d="M153.2,334c-11.9,0-21.7-9.7-21.7-21.7c0-11.9,9.7-21.7,21.7-21.7c12,0,21.7,9.7,21.7,21.7
		C174.8,324.3,165.1,334,153.2,334z M153.2,295.6c-9.2,0-16.7,7.5-16.7,16.7S144,329,153.2,329c9.2,0,16.7-7.5,16.7-16.7
		S162.4,295.6,153.2,295.6z"/>
	<path class="st0" d="M144.4,318.4c-3.3,0-6.1-2.7-6.1-6.1s2.7-6.1,6.1-6.1s6.1,2.7,6.1,6.1S147.8,318.4,144.4,318.4z M144.4,311.2
		c-0.6,0-1.1,0.5-1.1,1.1s0.5,1.1,1.1,1.1c0.6,0,1.1-0.5,1.1-1.1S145,311.2,144.4,311.2z"/>
	<path class="st0" d="M162.4,318.1c-3.3,0-6.1-2.7-6.1-6.1s2.7-6.1,6.1-6.1s6.1,2.7,6.1,6.1S165.8,318.1,162.4,318.1z M162.4,311
		c-0.6,0-1.1,0.5-1.1,1.1s0.5,1.1,1.1,1.1s1.1-0.5,1.1-1.1S163,311,162.4,311z"/>
	<path class="st0" d="M226.5,336.6H223c-3.3,0-6-2.7-6-6v-35.4c0-3.3,2.7-6,6-6h3.5c3.3,0,6,2.7,6,6v35.4
		C232.5,333.9,229.8,336.6,226.5,336.6z M223,294.1c-0.6,0-1,0.5-1,1v35.4c0,0.6,0.5,1,1,1h3.5c0.6,0,1-0.5,1-1v-35.4
		c0-0.6-0.5-1-1-1H223z"/>
	<path class="st0" d="M219.4,303.8h-18.3c-1.4,0-2.5-1.1-2.5-2.5s1.1-2.5,2.5-2.5h18.3c1.4,0,2.5,1.1,2.5,2.5
		S220.8,303.8,219.4,303.8z"/>
	<path class="st0" d="M219.4,326h-18.3c-1.4,0-2.5-1.1-2.5-2.5s1.1-2.5,2.5-2.5h18.3c1.4,0,2.5,1.1,2.5,2.5S220.8,326,219.4,326z"/>
	<path class="st0" d="M230.6,329.1c-0.1,0-0.2,0-0.3,0H230c-1.1,0-2-0.9-2-2s0.9-2,2-2h0.3c6.9,0,8.3-0.2,8.5-0.2
		c6.1-1.5,10.4-6.6,10.4-12.5c0-5.7-4.1-10.8-9.9-12.4c-0.9-0.2-5.9-0.1-7.7-0.1c-0.7,0-1.3,0-1.6,0c-1.1,0-2-0.9-2-2s0.9-2,2-2
		c0.3,0,0.9,0,1.5,0c4.8-0.1,7.7-0.1,8.9,0.3c7.5,2.1,12.8,8.8,12.8,16.3c0,7.8-5.6,14.5-13.5,16.4
		C239.1,329,237.4,329.1,230.6,329.1z"/>
	<path class="st0" d="M379.9,377.1C379.9,377.1,379.9,377.1,379.9,377.1c-1.1,0-2-0.9-2-2c0.1-5.7,0-36.1,0-36.4
		c0-0.9,0-1.8,0.1-2.8c0.1-1.6,0.4-3.3,0.8-4.9c0.5-1.8,1.2-3.5,2.2-5.1c3-4.9,7.3-7,8.8-7.7c2.8-1.4,5.8-2.1,8.9-2.3l102.6,0
		c2-0.2,29.5-3.3,29.6-30.2c0-1.1,0.9-2,2-2c0,0,0,0,0,0c1.1,0,2,0.9,2,2c-0.2,31.1-33,34.2-33.3,34.2c-0.1,0-0.1,0-0.2,0H398.7
		c-2.5,0.1-5,0.7-7.2,1.8c-1.2,0.6-4.7,2.3-7.1,6.2c-0.8,1.2-1.3,2.6-1.7,4c-0.3,1.3-0.5,2.7-0.6,4.2c-0.1,0.8-0.1,1.6-0.1,2.4
		c0,1.3,0.1,30.8,0,36.5C381.9,376.2,381,377.1,379.9,377.1z"/>
	<path class="st0" d="M338.4,376.8c-1.1,0-2-0.9-2-2c0-1-0.4-103.1-0.4-113.5c0-1.1,0.9-2,2-2s2,0.9,2,2c0,10.4,0.4,112.4,0.4,113.5
		C340.5,375.9,339.6,376.8,338.4,376.8C338.5,376.8,338.4,376.8,338.4,376.8z"/>
	<path class="st0" d="M251.3,314.4c-1.1,0-2-0.9-2-2c0-1.1,0.9-2,2-2l30.5-0.1c1-0.1,13.8-1.5,13.9-19.1c0.1-19.9,0-31.8,0-31.9
		c0-1.1,0.9-2,2-2c1.1,0,2,0.9,2,2c0,0.1,0.1,12.1,0,32c-0.1,21.8-17.6,23-17.8,23c0,0-0.1,0-0.1,0L251.3,314.4
		C251.3,314.4,251.3,314.4,251.3,314.4z"/>
	<path class="st0" d="M431.4,279.8c-15.1,0-27.4-12.3-27.4-27.4c0-15.1,12.3-27.4,27.4-27.4c2.8,0,5.5,0.4,8.1,1.2
		c1.1,0.3,1.6,1.4,1.3,2.5c-0.3,1.1-1.4,1.6-2.5,1.3c-2.2-0.7-4.6-1.1-7-1.1c-12.9,0-23.4,10.5-23.4,23.4
		c0,12.9,10.5,23.4,23.4,23.4c12.9,0,23.4-10.5,23.4-23.4c0-0.9,0-1.8-0.1-2.6c-0.1-1.1,0.7-2.1,1.8-2.2c1.1-0.1,2.1,0.7,2.2,1.8
		c0.1,1,0.2,2,0.2,3.1C458.7,267.5,446.5,279.8,431.4,279.8z"/>
	<path class="st0" d="M462.3,245.5c-10.9,0-20.8-6.5-25.2-16.5c-1.5-3.4-2.2-7.1-2.2-10.9c0-15.1,12.3-27.4,27.4-27.4
		c7.8,0,15.3,3.3,20.5,9.2c0.7,0.8,0.7,2.1-0.2,2.8c-0.8,0.7-2.1,0.7-2.8-0.2c-4.4-5-10.8-7.8-17.5-7.8c-12.9,0-23.4,10.5-23.4,23.4
		c0,3.2,0.6,6.3,1.9,9.3c3.7,8.6,12.1,14.1,21.5,14.1c0.9,0,1.7,0,2.6-0.1c1.1-0.1,2.1,0.7,2.2,1.8c0.1,1.1-0.7,2.1-1.8,2.2
		C464.3,245.4,463.3,245.5,462.3,245.5z"/>
	<path class="st0" d="M563.9,232.3c-4.6,0-9.3-1.2-13.6-3.7c-6.3-3.7-10.9-9.6-12.8-16.6c-1.9-7.1-0.9-14.4,2.7-20.8
		s9.6-10.9,16.6-12.8c7.1-1.9,14.4-0.9,20.8,2.7l0,0c13.1,7.6,17.6,24.3,10,37.4C582.6,227.4,573.3,232.3,563.9,232.3z M563.9,181.5
		c-2,0-4.1,0.3-6.1,0.8c-6,1.6-11.1,5.5-14.2,10.9s-4,11.7-2.3,17.8c1.6,6,5.5,11.1,10.9,14.2c11.2,6.4,25.5,2.6,32-8.6
		c6.4-11.2,2.6-25.5-8.6-32C572,182.6,568,181.5,563.9,181.5z"/>
	<path class="st0" d="M538.6,256.9C538.5,256.9,538.5,256.9,538.6,256.9c-1.1,0-2-0.9-2-2c0-4.7,1.3-9.3,3.7-13.4
		c4.5-7.6,13.2-12.7,22.8-13.2c1.1-0.1,2,0.8,2.1,1.9s-0.8,2-1.9,2.1c-8.2,0.4-15.7,4.7-19.5,11.2c-2,3.4-3.1,7.4-3.2,11.4
		C540.5,256,539.6,256.9,538.6,256.9z"/>
	<path class="st0" d="M609.8,247.2c-0.1,0-0.1,0-0.2,0c-3.8-0.4-7.4-1.6-10.8-3.5c-6.3-3.7-10.9-9.6-12.8-16.6
		c-1.9-7.1-0.9-14.4,2.7-20.8c3.7-6.3,9.6-10.9,16.6-12.8c7.1-1.9,14.4-0.9,20.8,2.7c10.5,6.1,15.8,18.5,12.9,30.3
		c-0.3,1.1-1.4,1.7-2.4,1.5c-1.1-0.3-1.7-1.4-1.5-2.4c2.5-10.1-2-20.7-11-25.9c-5.4-3.1-11.7-4-17.8-2.3c-6,1.6-11.1,5.5-14.2,10.9
		s-4,11.7-2.3,17.8c1.6,6,5.5,11.1,10.9,14.2c2.9,1.6,6,2.7,9.2,3c1.1,0.1,1.9,1.1,1.8,2.2C611.6,246.4,610.8,247.2,609.8,247.2z"/>
	<path class="st0" d="M640.1,278.7c-0.8,0-1.6,0-2.4-0.1c-1.1-0.1-1.9-1.1-1.8-2.2c0.1-1.1,1.1-1.9,2.2-1.8
		c9,0.8,17.8-3.8,22.3-11.6c6.4-11.2,2.6-25.5-8.6-32c-7.1-4.1-15.7-4.2-22.9-0.3c-1,0.5-2.2,0.2-2.7-0.8c-0.5-1-0.2-2.2,0.8-2.7
		c8.5-4.6,18.5-4.5,26.8,0.3c13.1,7.6,17.6,24.3,10,37.4C658.9,273.4,649.8,278.7,640.1,278.7z"/>
	<path class="st0" d="M649.8,319.1c-4.7,0-9.4-1.2-13.7-3.7c-8.1-4.7-13.2-13.1-13.7-22.5c-0.1-1.1,0.8-2,1.9-2.1
		c1.1-0.1,2,0.8,2.1,1.9c0.4,8,4.7,15.2,11.7,19.2c5.4,3.1,11.7,4,17.8,2.3c6-1.6,11.1-5.5,14.2-10.9c3.1-5.4,4-11.7,2.3-17.8
		c-1.6-6-5.5-11.1-10.9-14.2c-1.2-0.7-1.9-1-3.1-1.5c-1-0.4-1.6-1.5-1.2-2.6c0.4-1,1.5-1.6,2.6-1.2c1.4,0.5,2.3,1,3.7,1.8
		c6.3,3.7,10.9,9.6,12.8,16.6c1.9,7.1,0.9,14.4-2.7,20.8c-3.7,6.3-9.6,10.9-16.6,12.8C654.6,318.8,652.2,319.1,649.8,319.1z"/>
	<path class="st0" d="M624.5,295.2c-1.1,0-1.9-0.8-2-1.9c-0.8-13.1-10.1-22.5-22.8-22.9c-1.1,0-2-0.9-1.9-2.1c0-1.1,0.9-2,2.1-1.9
		c14.8,0.4,25.8,11.3,26.7,26.6c0.1,1.1-0.8,2-1.9,2.1C624.6,295.2,624.6,295.2,624.5,295.2z"/>
	<path class="st1" d="M572.1,297.3"/>
	<path class="st0" d="M572.5,319.1c-6.2,0-12.5-1.7-18.2-5c-11.4-6.6-18.4-18.4-17.6-30c0.1-1.1,1-1.9,2.1-1.9
		c1.1,0.1,1.9,1,1.9,2.1c-0.6,10.1,5.5,20.5,15.7,26.3c6.8,3.9,14.4,5.3,21.5,4c7-1.3,12.6-5.1,15.8-10.7c2.1-3.7,3.1-8,2.7-12.4
		c-0.1-1.1,0.7-2.1,1.8-2.1c1.1-0.1,2.1,0.7,2.1,1.8c0.4,5.2-0.7,10.3-3.3,14.7c-3.8,6.6-10.4,11.1-18.6,12.6
		C576.5,318.9,574.5,319.1,572.5,319.1z"/>
	<path class="st0" d="M428.9,319.8c-0.9,0-1.8-0.7-2-1.6c-0.2-1.1,0.5-2.1,1.6-2.3c6.6-1.3,12.4-5.4,15.7-11.3
		c2.1-3.7,3.2-7.9,3.1-12.1c0-1.1,0.9-2,2-2c1.1,0,2,0.9,2,2c0.1,5-1.2,9.9-3.7,14.2c-4,6.8-10.7,11.7-18.4,13.2
		C429.2,319.8,429,319.8,428.9,319.8z"/>
	<path class="st1" d="M442.3,275.3"/>
	<path class="st0" d="M419.1,319.8c-0.1,0-0.3,0-0.4,0c-2.9-0.6-5.8-1.6-8.4-3.2c-6.3-3.7-10.9-9.6-12.8-16.6
		c-1.9-7.1-0.9-14.4,2.7-20.8c2.8-4.8,6.9-8.6,11.9-11c1-0.5,2.2-0.1,2.7,0.9c0.5,1,0.1,2.2-0.9,2.7c-4.3,2-7.8,5.3-10.2,9.4
		c-3.1,5.4-4,11.7-2.3,17.8s5.5,11.1,10.9,14.2c2.2,1.3,4.7,2.2,7.2,2.7c1.1,0.2,1.8,1.3,1.6,2.3C420.9,319.2,420,319.8,419.1,319.8
		z"/>
	<path class="st0" d="M506.7,233.5c-15.1,0-27.4-12.3-27.4-27.4c0-15.1,12.3-27.4,27.4-27.4c15.2,0,28.1,12.5,28.1,27.4
		c0,1.1-0.9,2-2,2s-2-0.9-2-2c0-12.7-11.1-23.4-24.1-23.4c-12.9,0-23.4,10.5-23.4,23.4c0,12.9,10.5,23.4,23.4,23.4
		c0.9,0,1.8-0.1,2.7-0.2c1.1-0.1,2.1,0.7,2.2,1.8c0.1,1.1-0.7,2.1-1.8,2.2C508.8,233.4,507.7,233.5,506.7,233.5z"/>
	<path class="st1" d="M532.9,256.8"/>
	<path class="st0" d="M482.1,258.8c-1.1,0-2-0.9-2-2c0-15.1,12.3-27.4,27.4-27.4c1.1,0,2,0.9,2,2s-0.9,2-2,2
		c-12.9,0-23.4,10.5-23.4,23.4C484.1,258,483.2,258.8,482.1,258.8z"/>
	<path class="st0" d="M500.2,295.5c-1.1,0-2-0.9-2-2c0-12.9-10.5-23.4-23.4-23.4c-12.9,0-23.4,10.5-23.4,23.4c0,1.1-0.9,2-2,2
		s-2-0.9-2-2c0-15.1,12.3-27.4,27.4-27.4c15.1,0,27.4,12.3,27.4,27.4C502.2,294.6,501.3,295.5,500.2,295.5z"/>
	<path class="st1" d="M474.8,317.8"/>
	<path class="st0" d="M538.6,287.2c-1.1,0-2-0.9-2-2v-81.7c0-1.1,0.9-2,2-2s2,0.9,2,2v81.7C540.6,286.3,539.7,287.2,538.6,287.2z"/>
	<polygon class="st0" points="708.5,319.1 572.1,319.1 572.1,315.1 708.5,315.1 946,315 946,319 	"/>
	<path class="st0" d="M338.1,263.4c-1.1,0-2-0.9-2-2c0-10.4-8.3-19.2-18.2-19.2c-10.4,0-18.2,7.4-18.2,17.3c0,1.1-0.9,2-2,2
		s-2-0.9-2-2c0-11.9,9.8-21.3,22.2-21.3c12,0,22.2,10.6,22.2,23.2C340.1,262.5,339.2,263.4,338.1,263.4z"/>
	<path class="st0" d="M358.9,395.6c-12.8,0-22.4-9.5-22.4-22c0-1.1,0.9-2,2-2s2,0.9,2,2c0,10.3,7.9,18,18.4,18
		c10.8,0,19-7.5,19-17.5c0-1.1,0.9-2,2-2s2,0.9,2,2C381.9,386.4,372,395.6,358.9,395.6z"/>
	<path class="st0" d="M532.8,288.1c-1.1,0-2-0.9-2-2v-80.1c0-1.1,0.9-2,2-2s2,0.9,2,2v80.1C534.8,287.2,533.9,288.1,532.8,288.1z"/>
</g>
</svg>
