<svg xmlns="http://www.w3.org/2000/svg" viewBox="0 0 64 54"><defs><style>.cls-1{fill:#231f20;}</style></defs><title>about</title><g id="Слой_2" data-name="Слой 2"><g id="Responsive_Icons" data-name="Responsive Icons"><path class="cls-1" d="M60,6H52V1a1,1,0,0,0-1-1H45a1,1,0,0,0-1,1V6H20V1a1,1,0,0,0-1-1H13a1,1,0,0,0-1,1V6H4a4,4,0,0,0-4,4V50a4,4,0,0,0,4,4H60a4,4,0,0,0,4-4V10A4,4,0,0,0,60,6ZM46,2h4v8H46ZM14,2h4v8H14ZM62,50a2,2,0,0,1-2,2H4a2,2,0,0,1-2-2V10A2,2,0,0,1,4,8h8v3a1,1,0,0,0,1,1h6a1,1,0,0,0,1-1V8H44v3a1,1,0,0,0,1,1h6a1,1,0,0,0,1-1V8h8a2,2,0,0,1,2,2Z"/><path class="cls-1" d="M41,34H51a1,1,0,0,0,0-2H41a1,1,0,0,0,0,2Z"/><path class="cls-1" d="M55,26H41a1,1,0,0,0,0,2H55a1,1,0,0,0,0-2Z"/><path class="cls-1" d="M55,38H41a1,1,0,0,0,0,2H55a1,1,0,0,0,0-2Z"/><path class="cls-1" d="M41,22h6a1,1,0,0,0,0-2H41a1,1,0,0,0,0,2Z"/><path class="cls-1" d="M22,16A14,14,0,1,0,36,30,14,14,0,0,0,22,16ZM14.52,39.37C15.46,38.08,17.64,36,22,36s6.54,2.08,7.48,3.37a12,12,0,0,1-15,0ZM30.94,38C29.66,36.33,27,34,22,34s-7.66,2.33-8.94,4a12,12,0,1,1,17.87,0Z"/><path class="cls-1" d="M27,29V27a5,5,0,0,0-10,0v2a5,5,0,0,0,10,0Zm-2,0a3,3,0,0,1-6,0V27a3,3,0,0,1,6,0Z"/></g></g></svg>