<svg xmlns="http://www.w3.org/2000/svg" viewBox="0 0 64 48"><defs><style>.cls-1{fill:#231f20;fill-rule:evenodd;}</style></defs><title>cloud</title><g id="Слой_2" data-name="Слой 2"><g id="Responsive_Icons" data-name="Responsive Icons"><path class="cls-1" d="M53.76,17.09A20,20,0,0,0,15.6,12.16,8,8,0,0,0,6,20a8,8,0,0,0,1.64,4.83A12,12,0,0,0,12,48H48a16,16,0,0,0,5.76-30.91ZM48,46H12a10,10,0,0,1,0-20,1,1,0,0,0,0-2h0a12,12,0,0,0-2.25.22,6,6,0,0,1,8.49-8.46s1,1,1.76.24-.34-1.66-.34-1.66a8,8,0,0,0-2.16-1.53h0a18,18,0,0,1,34.14,3.62h0A16,16,0,0,0,48,16a1,1,0,0,0,0,2,14,14,0,0,1,0,28Z"/><path class="cls-1" d="M48,22a1,1,0,0,0,0,2,8,8,0,0,1,8,8,1,1,0,0,0,2,0A10,10,0,0,0,48,22Z"/><path class="cls-1" d="M18.83,27.28c-.75.73.24,1.65.24,1.65A10,10,0,0,1,22,36a1,1,0,0,0,2,0,12,12,0,0,0-3.51-8.49S19.58,26.55,18.83,27.28Z"/></g></g></svg>