<svg xmlns="http://www.w3.org/2000/svg" viewBox="0 0 64 64"><defs><style>.cls-1{fill:#231f20;}</style></defs><title>earth</title><g id="Слой_2" data-name="Слой 2"><g id="Responsive_Icons" data-name="Responsive Icons"><path class="cls-1" d="M32,0A32,32,0,1,0,64,32,32,32,0,0,0,32,0ZM27.82,6.42,28,6.21a3.41,3.41,0,0,0,1-2.1,2.84,2.84,0,0,0-.55-1.9,29.57,29.57,0,0,1,7.84.1,2.82,2.82,0,0,0,1.16.9,3.3,3.3,0,0,0,2.17.25,1.86,1.86,0,0,0,.64-.29c.62.18,1.23.37,1.83.58a1.93,1.93,0,0,0,1.6,1.46A2.59,2.59,0,0,0,45.15,5,30,30,0,0,1,61.54,26.76a2.21,2.21,0,0,0-.19.9.63.63,0,0,0,0,.14c0,.06-.08.08-.3.19a3,3,0,0,0-.92.63,3.36,3.36,0,0,0-.67,1,1.45,1.45,0,0,1-.27.47,1.09,1.09,0,0,1-.42.17,2.29,2.29,0,0,0-1.47,1A2.65,2.65,0,0,0,56.94,33s0,.1,0,.15l-.27.11a1.63,1.63,0,0,0-.22-1.2,1.36,1.36,0,0,0-1.15-.67,1.65,1.65,0,0,0-1.14.53,5.67,5.67,0,0,0-.08-1.26,1.86,1.86,0,0,1,.13-1.07l.05-.19a2,2,0,0,1,.41-.7,3.68,3.68,0,0,0,.76-1.46,4.92,4.92,0,0,0,.07-1.79c0-.18,0-.38,0-.61l0-.53a10.8,10.8,0,0,0-.19-1.94L55.19,22a5.74,5.74,0,0,0-.85-2.32A4.34,4.34,0,0,0,52.63,18a3.34,3.34,0,0,0-.62-.26,4.8,4.8,0,0,0-1-.19l-.31,0a3.87,3.87,0,0,0-1.37.09c-.29.06-.47.11-.61,0a1.23,1.23,0,0,1-.39-.38c-.09-.12-.19-.24-.32-.39a3.33,3.33,0,0,1-.31-.4,4.24,4.24,0,0,0-2-1.61,4.14,4.14,0,0,0-2.77.2,4.36,4.36,0,0,0-1.43.86c-.16.13-.32.27-.48.38s-.3.16-.43.22a4,4,0,0,0-1.07.67,7.61,7.61,0,0,1-1.43.91,1.1,1.1,0,0,1-.37-.12,2.78,2.78,0,0,0-.89-.26h-.4a2.77,2.77,0,0,0-1,.29,1.65,1.65,0,0,1-.3.12,3.9,3.9,0,0,1-1.13.06,5.59,5.59,0,0,0-1.81.15,3.48,3.48,0,0,0-1,.52c-.26.18-.33.21-.43.21s-.17,0-.45-.26a3.34,3.34,0,0,0-1.21-.67,6.45,6.45,0,0,0-1-.18l-.28,0c-.53-.08-.9-.11-1.33-.14l-.65-.06h-.28l0,0h-.13A7.86,7.86,0,0,0,24.22,17a9.38,9.38,0,0,0-1-.42,4.63,4.63,0,0,0-.16-1.15L23,15.24s0-.12.07-.24a2.76,2.76,0,0,1,.42-.77l.15-.1a3.11,3.11,0,0,0,.66-.53,3.55,3.55,0,0,0,1-2.36,2.52,2.52,0,0,0-.74-1.83l-.25-.31c0-.17.12-.24.54-.52a6.54,6.54,0,0,0,.69-.51,4.64,4.64,0,0,1,.79-.53A4.73,4.73,0,0,0,27.82,6.42ZM4.41,43.79a29.8,29.8,0,0,1-2.22-8.51,8.36,8.36,0,0,1,.95-1.4,4.24,4.24,0,0,1,1-.79,5.79,5.79,0,0,0,1.38-1.21,4.71,4.71,0,0,0,.88-2c.16-.62.25-.93.58-1.16a2.72,2.72,0,0,1,1.48-.41l.76-.09.37-.05a7,7,0,0,1,3.21,0,4.9,4.9,0,0,1,1.75,1,12,12,0,0,0,1.35.92,10.93,10.93,0,0,1,1.12.76,6,6,0,0,0,2.89,1.36,3.72,3.72,0,0,0,1.88-.31,2.21,2.21,0,0,1,.62-.18.27.27,0,0,1,.14,0c.66.36.8.67.83.87-.14,0-.34.07-.49.1-.7.12-2,.35-2.16,1.7A1.57,1.57,0,0,0,21,35.73c.52.59,1.5.53,2.6.28A6.76,6.76,0,0,1,25,35.79a1.07,1.07,0,0,1,.33,0,8.19,8.19,0,0,0,.91.25l.47.12-.33.06a5.53,5.53,0,0,0-1.46.4c-.38.17-.7.34-1,.5a8.43,8.43,0,0,1-1.84.77,2.56,2.56,0,0,1-.93-.05,5.24,5.24,0,0,0-.89-.1,2,2,0,0,0-1.72.87,3.26,3.26,0,0,0-.11,3.29,3.12,3.12,0,0,0,3.19,1.94A10.39,10.39,0,0,0,25,43.16a4.69,4.69,0,0,0,2-1.44,3.3,3.3,0,0,1,1.11-.92l.51-.23c1-.48,1.82-.83,2.64-.44.22.1.32.3.52.8a3.22,3.22,0,0,0,1.44,1.84,3.54,3.54,0,0,0,2.56.06c.44-.13.8-.24,1.06-.09s.38.38.59.82a4.7,4.7,0,0,0,.85,1.34l.37.4a5.15,5.15,0,0,0,2.79,1.88,2.64,2.64,0,0,0,.6.07,3.77,3.77,0,0,0,1.71-.5c.39-.19.69-.34.93-.26,1,.33,1.23.56,1.33,1s-.26.6-1.54,1.22l-.6.3a4.64,4.64,0,0,1-2,.47c-.31,0-.64.05-1,.1a18,18,0,0,0-2,.4,9.25,9.25,0,0,1-2,.34,2.36,2.36,0,0,1-1.54-.53,3.11,3.11,0,0,1-.8-1.07,8.23,8.23,0,0,0-.69-1.11A7.33,7.33,0,0,1,33,46.23c-.51-1.08-1.15-2.43-2.6-2.43a2.38,2.38,0,0,0-.76.13,3,3,0,0,0-1.78,1.94,4.31,4.31,0,0,1-.38.77,6,6,0,0,0-.73,1.6c-.28.84-.37.94-.59,1s-.59-.1-1.12-.49l-.5-.35a3.46,3.46,0,0,1-.81-.81,5.61,5.61,0,0,0-1.15-1.16A6.46,6.46,0,0,0,21,45.57,5.3,5.3,0,0,1,19.9,45a2,2,0,0,1-.41-.43,2.3,2.3,0,0,0-1.79-1.07h-.1A2.74,2.74,0,0,0,15.14,45a8.46,8.46,0,0,0-.63,1.69c-.31,1-.75,2.47-1.42,2.47h0c-.7,0-2.75-1.85-3.74-2.71a20.37,20.37,0,0,0-1.76-1.45l-.33-.23a4.46,4.46,0,0,0-2.56-1.06ZM32,62A30,30,0,0,1,5.5,46.06l.61.4.36.25c.34.22.93.74,1.55,1.29,2.08,1.82,3.65,3.12,4.93,3.2,2.26.15,3-2.3,3.47-3.89A7.75,7.75,0,0,1,16.87,46a.79.79,0,0,1,.77-.5,1.91,1.91,0,0,1,.28.31,3.72,3.72,0,0,0,.87.86,7.15,7.15,0,0,0,1.46.72,4.58,4.58,0,0,1,1.16.59,3.79,3.79,0,0,1,.77.79A5.34,5.34,0,0,0,23.45,50l.43.3a3.31,3.31,0,0,0,2.58.85c1.5-.22,1.93-1.48,2.21-2.32a4.3,4.3,0,0,1,.48-1.1,6,6,0,0,0,.58-1.14c.26-.62.34-.74.57-.81a.31.31,0,0,1,.13,0c.2.06.58.86.78,1.29a8.85,8.85,0,0,0,1,1.72,6.51,6.51,0,0,1,.52.84A5,5,0,0,0,34,51.33a4.36,4.36,0,0,0,2.79,1,10.68,10.68,0,0,0,2.49-.4,16.42,16.42,0,0,1,1.81-.36c.33,0,.63-.07.91-.09a6.52,6.52,0,0,0,2.74-.68l.55-.27c1.25-.6,3.13-1.51,2.62-3.5a3.46,3.46,0,0,0-2.66-2.4,2.54,2.54,0,0,0-.77-.12,3.68,3.68,0,0,0-1.67.49,1.64,1.64,0,0,1-1,.28A3.34,3.34,0,0,1,40.09,44l-.4-.43a2.92,2.92,0,0,1-.49-.81A3.43,3.43,0,0,0,37.82,41a3.43,3.43,0,0,0-2.63-.12c-.44.13-.8.24-1.07.09s-.33-.33-.53-.83a3.08,3.08,0,0,0-1.52-1.86,3.7,3.7,0,0,0-1.6-.37,6.44,6.44,0,0,0-2.73.8l-.48.22a5.2,5.2,0,0,0-1.78,1.4,2.79,2.79,0,0,1-1.15.9,8.67,8.67,0,0,1-2.73.6c-.93,0-1.2-.35-1.33-.69-.34-.83-.31-1.11,0-1.41a3.44,3.44,0,0,1,.56.07,4.46,4.46,0,0,0,1.78,0,10.27,10.27,0,0,0,2.25-.93c.28-.14.57-.3.93-.46a4.12,4.12,0,0,1,.95-.23c.78-.13,2.4-.41,2.28-2.08-.12-1.5-1.48-1.82-2.3-2A6.07,6.07,0,0,1,26,34a2.94,2.94,0,0,0-.94-.16,1.68,1.68,0,0,0,.28-.82A3,3,0,0,0,23.48,30a2.27,2.27,0,0,0-1.11-.29A3.64,3.64,0,0,0,21,30a2,2,0,0,1-.89.2,4.1,4.1,0,0,1-2-1,12.93,12.93,0,0,0-1.33-.9,10,10,0,0,1-1.13-.77,6.76,6.76,0,0,0-2.42-1.31,9.06,9.06,0,0,0-4-.08l-.36.05-.67.07a4.61,4.61,0,0,0-2.43.75A3.56,3.56,0,0,0,4.41,29.4a3,3,0,0,1-.5,1.21,4,4,0,0,1-1,.81,7.46,7.46,0,0,0-.95.73c0-.05,0-.11,0-.16A30,30,0,0,1,26.28,2.55l.33.49c.35.48.43.63.41.92s-.15.49-.54.94l-.2.23a2.89,2.89,0,0,1-.9.68,6.55,6.55,0,0,0-1.11.75,4.32,4.32,0,0,1-.49.35,2.81,2.81,0,0,0-1.37,1.7,2.26,2.26,0,0,0,.66,2.07,1.61,1.61,0,0,1,.29.41,1.56,1.56,0,0,1-.51,1.14,1.23,1.23,0,0,1-.28.21l-.36.25-.12.11a4.61,4.61,0,0,0-.9,1.55,2,2,0,0,0,0,1.6l0,.12a4.7,4.7,0,0,1,.07.82l-.08,1.22.81.2a5.66,5.66,0,0,1,1.35.51,5.86,5.86,0,0,1,.87.53l.29.2a1.8,1.8,0,0,0,1.21.15l.57,0c.38,0,.72.06,1.21.13l.31,0a4.67,4.67,0,0,1,.71.12,1.53,1.53,0,0,1,.5.31,2.42,2.42,0,0,0,3.24.14,1.62,1.62,0,0,1,.46-.25,3.64,3.64,0,0,1,1.15-.07,5.81,5.81,0,0,0,1.72-.12,3.6,3.6,0,0,0,.65-.24l.25-.11h.12a1.2,1.2,0,0,1,.3.1,2.93,2.93,0,0,0,1.14.28c1.08,0,2.75-1.39,2.77-1.41a2.2,2.2,0,0,1,.6-.36c.18-.08.37-.18.64-.33a8.12,8.12,0,0,0,.7-.53,2.48,2.48,0,0,1,.82-.52,2.06,2.06,0,0,1,1.46-.19,1.87,1.87,0,0,1,.67.41,1.9,1.9,0,0,1,.38.45,5.15,5.15,0,0,0,.47.61l.23.28a3.14,3.14,0,0,0,1,.9,3,3,0,0,0,2,.18,1.9,1.9,0,0,1,.67-.07l.35,0a3.12,3.12,0,0,1,.59.11,1.52,1.52,0,0,1,.28.12,2.45,2.45,0,0,1,1,1,3.86,3.86,0,0,1,.55,1.6l.07.36a8.77,8.77,0,0,1,.15,1.61l0,.55c0,.26,0,.5.05.72a3,3,0,0,1,0,1.14,1.81,1.81,0,0,1-.4.71,3.83,3.83,0,0,0-.74,1.37l0,.17a3.74,3.74,0,0,0-.16,2.07,7.88,7.88,0,0,1,0,1.17c0,1.13,0,1.88.44,2.36a1.13,1.13,0,0,0,.81.34l.31,0,.2-.1a2.85,2.85,0,0,0,.75-.55l0,.05a1.67,1.67,0,0,0,1.62,1c.82,0,2.49-.58,2.61-1.66a5,5,0,0,0,0-.79c0-.35,0-.42.05-.53a1.63,1.63,0,0,1,.32-.11,2.78,2.78,0,0,0,1.27-.66,3.29,3.29,0,0,0,.7-1.08,1.52,1.52,0,0,1,.29-.49,1.14,1.14,0,0,1,.35-.21c.05.73.09,1.46.09,2.2A30,30,0,0,1,32,62Z"/><path class="cls-1" d="M44.63,28.16a2.82,2.82,0,0,0-1.79,1.77,2.56,2.56,0,0,1-.51.82,5.15,5.15,0,0,1-1.21.8,7,7,0,0,0-1.61,1.09,6.47,6.47,0,0,1-.66.51c-.74.52-1.85,1.31-1.53,2.8a1.85,1.85,0,0,0,1.92,1.49A7.08,7.08,0,0,0,41.3,37c.34-.11.68-.22,1-.29a7.56,7.56,0,0,0,4.26-2.16l.45-.43c1.13-1.08,2.85-2.71,1.57-4.6A3.44,3.44,0,0,0,44.63,28.16Zm1,4.51-.48.46a5.63,5.63,0,0,1-3.28,1.62c-.37.08-.77.21-1.17.34a6.41,6.41,0,0,1-1.41.35c0-.12.18-.27.74-.66a8.31,8.31,0,0,0,.87-.68,5.14,5.14,0,0,1,1.19-.79,7,7,0,0,0,1.63-1.1,4.29,4.29,0,0,0,1-1.43c.26-.54.33-.65.53-.7a2,2,0,0,1,.56-.08,1.32,1.32,0,0,1,1.16.63C47.16,31,46.87,31.47,45.61,32.67Z"/><path class="cls-1" d="M32.42,53.08a2.39,2.39,0,0,0-.71.11c-1.46.47-1.39,1.93-1.35,2.72a5.17,5.17,0,0,1,0,.8,4.25,4.25,0,0,1-.14.63,2.38,2.38,0,0,0,.44,2.56,2.15,2.15,0,0,0,1.52.61,3.73,3.73,0,0,0,2.59-1.33,3.52,3.52,0,0,0,0-4.63A3.14,3.14,0,0,0,32.42,53.08Zm.87,4.75a1.88,1.88,0,0,1-1.11.68.18.18,0,0,1-.14-.05,2.37,2.37,0,0,1,.12-.6,6.13,6.13,0,0,0,.19-.91,6.83,6.83,0,0,0,0-1.12,4.4,4.4,0,0,1,0-.73c.17,0,.37,0,.89.7A1.52,1.52,0,0,1,33.29,57.83Z"/></g></g></svg>