<svg xmlns="http://www.w3.org/2000/svg" viewBox="0 0 48 64"><defs><style>.cls-1{fill:#231f20;}</style></defs><title>lamp</title><g id="Слой_2" data-name="Слой 2"><g id="Responsive_Icons" data-name="Responsive Icons"><path class="cls-1" d="M48,24A24,24,0,1,0,14,45.8V60a4,4,0,0,0,4,4H30a4,4,0,0,0,4-4V45.8A24,24,0,0,0,48,24ZM32,60a2,2,0,0,1-2,2H18a2,2,0,0,1-2-2V58H32Zm0-4H16V52H32Zm0-6H16V46H32Zm-6-6H22V25a2,2,0,0,1,4,0Zm7.15,0H28V25a2,2,0,0,1,4,0,1,1,0,0,0,2,0,4,4,0,0,0-7-2.62,4,4,0,0,0-6,0A4,4,0,0,0,14,25a1,1,0,0,0,2,0,2,2,0,0,1,4,0V44H14.85a22,22,0,1,1,18.3,0Z"/><path class="cls-1" d="M24,6a1,1,0,0,0,0,2,16,16,0,0,1,11.31,4.69s.94,1.06,1.69.31-.27-1.73-.27-1.73A18,18,0,0,0,24,6Z"/></g></g></svg>