<?xml version="1.0" encoding="utf-8"?>
<!-- Generator: Adobe Illustrator 21.0.1, SVG Export Plug-In . SVG Version: 6.00 Build 0)  -->
<svg version="1.1" id="Слой_1" xmlns="http://www.w3.org/2000/svg" xmlns:xlink="http://www.w3.org/1999/xlink" x="0px" y="0px"
	 viewBox="0 0 600 600" style="enable-background:new 0 0 600 600;" xml:space="preserve">
<style type="text/css">
	.st0{fill:#D12938;}
	.st1{fill:#FFFFFF;}
	.st2{fill:#FFFFFF;stroke:#FFFFFF;stroke-width:6;stroke-miterlimit:10;}
	.st3{fill:#FFFFFF;stroke:#FFFFFF;stroke-width:6;stroke-linecap:round;stroke-linejoin:round;stroke-miterlimit:10;}
	.st4{stroke:#FFFFFF;stroke-width:6;stroke-miterlimit:10;}
	.st5{stroke:#FFFFFF;stroke-width:6;stroke-linecap:round;stroke-linejoin:round;stroke-miterlimit:10;}
</style>
<g>
	<g>
		<path d="M209.8,355.9c-0.1,0-0.3,0-0.4,0c-3.3-0.2-5.8-3.1-5.6-6.3c0.6-9-1.4-11.4-1.7-11.7h-42.3c-53.7,0-97.4-43.7-97.4-97.4
			c0-53.7,43.7-97.4,97.4-97.4c15,0,29.3,3.3,42.7,9.8c3,1.4,4.2,5,2.7,8c-1.4,3-5,4.2-8,2.7c-11.7-5.7-24.3-8.6-37.5-8.6
			c-47.1,0-85.5,38.3-85.5,85.5s38.3,85.5,85.5,85.5h42.3c2.3-0.1,5.5,0.7,8.3,3.3c4.3,4.1,6,11,5.3,21.1
			C215.6,353.5,213,355.9,209.8,355.9z M203.1,337.9C203,337.9,203,337.9,203.1,337.9C203,337.9,203,337.9,203.1,337.9z"/>
		<path d="M219.8,315.5c-1.7,0-3.3-0.7-4.5-2.1c-2.2-2.5-1.9-6.2,0.6-8.4c11.2-9.7,19.7-22.2,24.6-36.1c1.1-3.1,4.5-4.7,7.6-3.6
			c3.1,1.1,4.7,4.5,3.6,7.6c-5.6,15.8-15.3,30-28,41.1C222.6,315.1,221.2,315.5,219.8,315.5z"/>
		<path d="M197.5,432.1h-76.2c-3.3,0-6-2.7-6-6c0-3.3,2.7-6,6-6h76.2c3.4,0,6.3-2.1,6.3-4.5s-3-4.5-6.3-4.5h-75.4
			c-10.1,0-18.2-7.4-18.2-16.4c0-8.8,7.8-16,17.4-16.4c0.1,0,0.3,0,0.4,0H198c3.4,0,6.3-2.1,6.3-4.5s-3-4.5-6.3-4.5h-76.2
			c-0.7,0-16.4-0.4-17.4-26.9c-0.1-3.3,2.4-6.1,5.7-6.2c3.3-0.2,6.1,2.4,6.2,5.7c0.4,11.3,4,15,5.8,15.4H198
			c10.1,0,18.2,7.4,18.2,16.4c0,9.1-8.2,16.4-18.2,16.4h-75.8c-3.4,0-6.3,2.1-6.3,4.5s3,4.5,6.3,4.5h76.2c0.3,0,0.7,0,1,0.1
			c9.2,0.8,16.5,7.8,16.5,16.3C215.8,424.8,207.6,432.1,197.5,432.1z M121.9,357.5C121.9,357.5,121.8,357.5,121.9,357.5l0.1,0
			C122,357.5,122,357.5,121.9,357.5z"/>
		<path d="M159.5,456.5c-0.7,0-1.5,0-2.2-0.1c-11.8-1.1-18.7-11.1-19-11.5c-1.9-2.7-1.1-6.4,1.6-8.3c2.7-1.8,6.4-1.2,8.3,1.5
			c0.1,0.2,4.2,5.8,10.4,6.4c4.5,0.4,9.4-2,14.7-7.2c2.3-2.3,6.1-2.3,8.4,0c2.3,2.3,2.3,6.1,0,8.4
			C174.4,452.9,167,456.5,159.5,456.5z"/>
	</g>
	<g>
		<path d="M406.7,255.8c0,5.4-1.1,10.3-3.2,14.8c-2.1,4.5-5,8.4-8.6,11.7c-3.6,3.3-7.8,5.8-12.7,7.6c-4.8,1.8-10,2.7-15.5,2.7h-67.3
			V149.9h68.7c5,0,9.4,1.1,13.5,3.2c4,2.1,7.4,4.9,10.2,8.3c2.8,3.4,5,7.3,6.5,11.7c1.5,4.4,2.3,8.7,2.3,13.2
			c0,7.2-1.8,13.8-5.4,19.8c-3.6,6-8.6,10.4-15.1,13.4c8.2,2.4,14.6,6.9,19.4,13.5C404.4,239.4,406.7,247.1,406.7,255.8z
			 M313.5,162.2v52.6h49c3.5,0,6.7-0.7,9.7-2.2c3-1.5,5.6-3.4,7.7-5.8c2.1-2.4,3.8-5.2,5-8.3c1.2-3.1,1.8-6.5,1.8-9.9
			c0-3.6-0.6-7-1.7-10.2c-1.1-3.2-2.7-6-4.8-8.3c-2.1-2.3-4.5-4.2-7.3-5.6c-2.8-1.4-5.9-2.1-9.2-2.1H313.5z M392.7,253.4
			c0-3.5-0.6-6.9-1.8-10.1c-1.2-3.3-2.9-6.2-5.1-8.6c-2.2-2.5-4.8-4.5-7.8-6c-3-1.5-6.3-2.3-9.7-2.3h-54.6v54h53.2
			c3.6,0,7-0.7,10.1-2.2c3.1-1.5,5.9-3.4,8.2-5.9c2.3-2.5,4.2-5.4,5.5-8.6C392,260.2,392.7,256.9,392.7,253.4z"/>
		<path d="M475.6,294.5c-7.6,0-14.6-1.4-21-4.3c-6.4-2.9-11.9-6.8-16.6-11.9c-4.7-5-8.3-10.8-10.9-17.4c-2.6-6.6-3.9-13.6-3.9-21.1
			c0-7.4,1.3-14.3,3.9-20.8c2.6-6.5,6.2-12.2,10.8-17.1c4.6-4.9,10.1-8.8,16.6-11.7c6.4-2.9,13.4-4.3,20.9-4.3
			c7.6,0,14.6,1.4,21,4.3c6.4,2.9,11.8,6.8,16.4,11.8c4.6,5,8.1,10.6,10.6,17.1c2.5,6.4,3.8,13.3,3.8,20.5c0,1.1,0,2.1,0,3.2
			c0,1.1-0.1,1.8-0.2,2.2h-89.6c0.4,5.6,1.7,10.8,3.9,15.6c2.2,4.8,5.1,8.9,8.5,12.4c3.5,3.5,7.5,6.2,12,8.1
			c4.5,1.9,9.3,2.9,14.4,2.9c3.3,0,6.7-0.5,10-1.4c3.3-0.9,6.4-2.2,9.2-3.8c2.8-1.6,5.4-3.6,7.6-5.9c2.3-2.3,4-4.9,5.2-7.7l11.9,3.2
			c-1.6,3.9-3.9,7.4-6.8,10.5c-2.9,3.1-6.4,5.9-10.2,8.2c-3.9,2.3-8.2,4.2-12.9,5.4C485.6,293.9,480.7,294.5,475.6,294.5z
			 M514.2,234.7c-0.4-5.6-1.7-10.7-3.9-15.4c-2.2-4.6-5-8.6-8.4-12c-3.4-3.3-7.4-6-11.9-7.8c-4.5-1.9-9.3-2.8-14.4-2.8
			c-5.1,0-9.9,0.9-14.5,2.8c-4.6,1.9-8.5,4.5-12,7.8c-3.4,3.3-6.2,7.4-8.2,12.1c-2.1,4.7-3.3,9.8-3.7,15.3H514.2z"/>
		<path d="M402.5,432.2c-13.3,14.6-28.5,21.9-45.8,21.9c-9.6,0-18.5-2.1-26.6-6.2c-8.1-4.1-15.1-9.6-21.1-16.5
			c-6-6.8-10.6-14.6-14-23.2c-3.3-8.6-5-17.5-5-26.6c0-9.5,1.6-18.6,4.9-27.3c3.3-8.7,7.9-16.4,13.8-23c5.9-6.6,12.9-11.9,20.9-15.9
			c8-3.9,16.8-5.9,26.3-5.9c7,0,13.3,0.8,19.1,2.3c5.8,1.5,10.9,3.7,15.4,6.4c4.5,2.7,8.4,6,11.7,9.8c3.3,3.8,6.1,8,8.3,12.6
			l-10.8,7.2c-4.7-8.8-10.8-15.3-18.3-19.5c-7.5-4.1-16-6.2-25.5-6.2c-7.9,0-15,1.7-21.4,5c-6.4,3.3-11.8,7.8-16.3,13.4
			c-4.5,5.6-7.9,11.9-10.3,19.1c-2.4,7.2-3.6,14.6-3.6,22.2c0,8,1.4,15.7,4.1,22.9c2.7,7.2,6.5,13.6,11.3,19c4.8,5.4,10.5,9.7,17,13
			c6.5,3.2,13.6,4.8,21.2,4.8c8.2,0,16-1.9,23.4-5.7s14.6-9.9,21.4-18.2v-23.7h-31.7V383h43.6v70.1h-11.9V432.2z"/>
		<path d="M485.1,455.1c-7.6,0-14.6-1.4-20.9-4.3c-6.3-2.9-11.8-6.8-16.4-11.8c-4.6-5-8.2-10.7-10.7-17.3
			c-2.5-6.6-3.8-13.5-3.8-20.7c0-7.4,1.3-14.3,3.9-20.9c2.6-6.6,6.2-12.3,10.8-17.3c4.6-5,10.1-8.9,16.4-11.9
			c6.3-2.9,13.2-4.4,20.7-4.4c7.5,0,14.4,1.5,20.8,4.4c6.4,2.9,11.9,6.9,16.5,11.9c4.6,5,8.2,10.7,10.8,17.3
			c2.6,6.6,3.9,13.5,3.9,20.9c0,7.2-1.3,14.1-3.8,20.7c-2.5,6.6-6.1,12.3-10.7,17.3c-4.6,5-10.1,8.9-16.5,11.8
			C499.7,453.6,492.7,455.1,485.1,455.1z M447.1,401.2c0,5.9,1,11.3,3,16.4c2,5,4.7,9.4,8.1,13.3c3.4,3.8,7.4,6.8,12.1,8.9
			c4.6,2.1,9.5,3.2,14.8,3.2s10.1-1.1,14.8-3.3c4.6-2.2,8.7-5.2,12.2-9c3.5-3.8,6.2-8.3,8.2-13.4c2-5.1,3-10.6,3-16.5
			c0-5.8-1-11.2-3-16.4c-2-5.2-4.8-9.6-8.2-13.5c-3.5-3.8-7.5-6.8-12.2-9c-4.6-2.2-9.5-3.3-14.8-3.3s-10.1,1.1-14.7,3.3
			c-4.6,2.2-8.6,5.3-12.1,9.1c-3.5,3.9-6.2,8.4-8.2,13.6C448.1,389.8,447.1,395.4,447.1,401.2z"/>
	</g>
</g>
</svg>
