<svg xmlns="http://www.w3.org/2000/svg" viewBox="0 0 132.78 132.85"><defs><style>.cls-1{fill:#fff;}.cls-2{fill:#ca2228;}</style></defs><title>logo</title><g id="Слой_2" data-name="Слой 2"><g id="Слой_1-2" data-name="Слой 1"><path class="cls-1" d="M57.29,61.34H1.79A1.75,1.75,0,0,1,0,59.63V1.7A1.75,1.75,0,0,1,1.79,0h55.5a1.75,1.75,0,0,1,1.79,1.7V59.63A1.75,1.75,0,0,1,57.29,61.34ZM3.58,57.93H55.5V3.41H3.58Z"/><path class="cls-2" d="M57.29,132.85H1.79A1.75,1.75,0,0,1,0,131.14V73.21a1.75,1.75,0,0,1,1.79-1.7h55.5a1.75,1.75,0,0,1,1.79,1.7v57.93A1.75,1.75,0,0,1,57.29,132.85Zm-53.7-3.41H55.5V74.92H3.58Z"/><path class="cls-2" d="M131,61.34H75.49a1.75,1.75,0,0,1-1.79-1.7V1.7A1.75,1.75,0,0,1,75.49,0H131a1.75,1.75,0,0,1,1.79,1.7V59.63A1.75,1.75,0,0,1,131,61.34Zm-53.7-3.41H129.2V3.41H77.28Z"/><path class="cls-1" d="M131,132.85H75.49a1.75,1.75,0,0,1-1.79-1.7V73.21a1.75,1.75,0,0,1,1.79-1.7H131a1.75,1.75,0,0,1,1.79,1.7v57.93A1.75,1.75,0,0,1,131,132.85Zm-53.7-3.41H129.2V74.92H77.28Z"/></g></g></svg>