<?xml version="1.0" encoding="utf-8"?>
<!-- Generator: Adobe Illustrator 21.0.1, SVG Export Plug-In . SVG Version: 6.00 Build 0)  -->
<svg version="1.1" id="Слой_1" xmlns="http://www.w3.org/2000/svg" xmlns:xlink="http://www.w3.org/1999/xlink" x="0px" y="0px"
	 viewBox="0 0 600 381" style="enable-background:new 0 0 600 381;" xml:space="preserve">
<style type="text/css">
	.st0{fill:#FFFFFF;}
</style>
<g>
	<g>
		<path class="st0" d="M203.5,254.2c-0.1,0-0.3,0-0.4,0c-3.6-0.2-6.3-3.3-6.1-6.9c0.6-9.9-1.5-12.4-1.8-12.8h-46.3
			c-58.7,0-106.5-47.8-106.5-106.5c0-58.7,47.8-106.5,106.5-106.5c16.4,0,32.1,3.6,46.7,10.8c3.2,1.6,4.6,5.5,3,8.7
			c-1.6,3.2-5.5,4.6-8.7,3c-12.8-6.3-26.6-9.4-41-9.4c-51.5,0-93.5,41.9-93.5,93.5s41.9,93.5,93.5,93.5h46.2c2.5-0.1,6,0.7,9,3.6
			c4.7,4.4,6.6,12,5.8,23.1C209.8,251.5,206.9,254.2,203.5,254.2z M196.1,234.4C196.1,234.4,196.1,234.4,196.1,234.4
			C196.1,234.4,196.1,234.4,196.1,234.4z"/>
		<path class="st0" d="M214.4,210c-1.8,0-3.6-0.8-4.9-2.2c-2.4-2.7-2.1-6.8,0.6-9.2c12.2-10.6,21.5-24.3,26.9-39.5
			c1.2-3.4,4.9-5.2,8.3-4c3.4,1.2,5.2,4.9,4,8.3c-6.1,17.3-16.7,32.9-30.6,45C217.5,209.5,216,210,214.4,210z"/>
		<path class="st0" d="M94.7,234.1"/>
		<path class="st0" d="M190.1,337.5h-83.3c-3.6,0-6.5-2.9-6.5-6.5s2.9-6.5,6.5-6.5h83.3c3.7,0,6.9-2.3,6.9-4.9s-3.2-4.9-6.9-4.9
			h-82.4c-11,0-20-8.1-20-18c0-9.6,8.5-17.5,19.1-17.9c0.2,0,0.3,0,0.5,0h83.3c3.7,0,6.9-2.3,6.9-4.9s-3.2-4.9-6.9-4.9h-83.3
			c-0.8,0-17.9-0.4-19.1-29.4c-0.1-3.6,2.7-6.6,6.3-6.8c3.6-0.2,6.6,2.7,6.8,6.3c0.5,12.4,4.3,16.4,6.4,16.8h83c11,0,20,8.1,20,18
			c0,9.9-8.9,18-20,18h-82.9c-3.7,0-6.9,2.3-6.9,4.9s3.2,4.9,6.9,4.9H191c0.4,0,0.7,0,1.1,0.1c10.1,0.9,18,8.6,18,17.9
			C210,329.4,201.1,337.5,190.1,337.5z M107.4,255.8c-0.1,0-0.1,0-0.1,0h0.2C107.5,255.8,107.4,255.8,107.4,255.8z"/>
		<path class="st0" d="M131.3,345.5"/>
		<path class="st0" d="M148.4,364.2c-0.8,0-1.6,0-2.4-0.1c-12.9-1.2-20.4-12.1-20.8-12.6c-2-3-1.3-7,1.7-9.1c3-2,7-1.3,9,1.7
			c0.1,0.2,4.6,6.4,11.3,7c4.9,0.4,10.3-2.2,16-7.9c2.6-2.5,6.7-2.5,9.2,0c2.5,2.6,2.5,6.7,0,9.2
			C164.7,360.2,156.6,364.2,148.4,364.2z"/>
	</g>
	<g>
		<path class="st0" d="M418.9,144.6c0,5.9-1.2,11.2-3.5,16.1c-2.3,4.9-5.5,9.2-9.4,12.7c-4,3.6-8.6,6.4-13.8,8.3s-10.9,3-16.9,3
			h-73.6v-156h75.1c5.4,0,10.3,1.2,14.7,3.5c4.4,2.3,8.1,5.4,11.2,9.1c3.1,3.7,5.5,8,7.1,12.7c1.7,4.8,2.5,9.6,2.5,14.4
			c0,7.9-2,15.1-5.9,21.6c-4,6.5-9.4,11.4-16.5,14.6c8.9,2.6,16,7.5,21.2,14.7C416.3,126.8,418.9,135.1,418.9,144.6z M316.9,42.3
			v57.6h53.6c3.8,0,7.4-0.8,10.7-2.4c3.3-1.6,6.1-3.7,8.5-6.4c2.3-2.6,4.2-5.7,5.5-9.1c1.3-3.4,2-7.1,2-10.9c0-4-0.6-7.7-1.9-11.2
			c-1.2-3.5-3-6.6-5.3-9.1c-2.3-2.6-4.9-4.6-8-6.2c-3.1-1.5-6.4-2.3-10.1-2.3H316.9z M403.5,142c0-3.8-0.7-7.5-2-11.1
			c-1.3-3.6-3.2-6.7-5.6-9.4c-2.4-2.7-5.3-4.9-8.6-6.6c-3.3-1.7-6.8-2.5-10.7-2.5h-59.8v59.1h58.2c4,0,7.7-0.8,11.1-2.4
			c3.4-1.6,6.4-3.8,9-6.5c2.6-2.7,4.6-5.9,6-9.4C402.8,149.5,403.5,145.8,403.5,142z"/>
		<path class="st0" d="M494.2,187c-8.3,0-16-1.6-23-4.7c-7-3.1-13-7.5-18.1-13c-5.1-5.5-9.1-11.8-12-19c-2.9-7.2-4.3-14.9-4.3-23.1
			c0-8.1,1.4-15.6,4.3-22.7c2.9-7.1,6.8-13.3,11.9-18.7c5.1-5.3,11.1-9.6,18.1-12.7c7-3.1,14.6-4.7,22.8-4.7c8.3,0,16,1.6,23,4.7
			c7,3.2,12.9,7.4,17.9,12.9c5,5.4,8.9,11.6,11.6,18.7c2.8,7,4.2,14.5,4.2,22.4c0,1.2,0,2.3,0,3.5c0,1.2-0.1,2-0.2,2.4h-98
			c0.4,6.2,1.9,11.8,4.3,17c2.4,5.2,5.5,9.7,9.3,13.5c3.8,3.8,8.2,6.8,13.1,8.9c4.9,2.1,10.1,3.2,15.7,3.2c3.7,0,7.3-0.5,11-1.5
			c3.7-1,7-2.4,10.1-4.2c3.1-1.8,5.9-3.9,8.3-6.5c2.5-2.6,4.4-5.4,5.7-8.5l13,3.5c-1.8,4.2-4.2,8.1-7.5,11.5c-3.2,3.4-7,6.4-11.2,9
			c-4.3,2.6-8.9,4.5-14.1,5.9C505.1,186.3,499.8,187,494.2,187z M536.4,121.6c-0.4-6.2-1.9-11.8-4.3-16.8c-2.4-5.1-5.5-9.4-9.2-13.1
			c-3.7-3.7-8.1-6.5-13-8.6c-4.9-2-10.1-3.1-15.7-3.1c-5.6,0-10.8,1-15.8,3.1c-5,2.1-9.3,4.9-13.1,8.6c-3.7,3.7-6.7,8.1-9,13.2
			c-2.3,5.1-3.6,10.7-4.1,16.7H536.4z"/>
		<path class="st0" d="M414.2,337.5c-14.5,16-31.2,23.9-50.1,23.9c-10.5,0-20.2-2.3-29.1-6.8c-8.9-4.5-16.6-10.5-23.1-18
			c-6.5-7.5-11.6-15.9-15.3-25.4c-3.7-9.4-5.5-19.1-5.5-29.1c0-10.4,1.8-20.4,5.4-29.9c3.6-9.5,8.6-17.9,15-25.2
			c6.4-7.2,14.1-13,22.8-17.4c8.8-4.3,18.4-6.5,28.8-6.5c7.6,0,14.6,0.8,20.9,2.5c6.3,1.7,11.9,4,16.8,7c4.9,3,9.2,6.6,12.7,10.8
			c3.6,4.2,6.6,8.8,9.1,13.7l-11.9,7.9c-5.1-9.7-11.8-16.8-20-21.3c-8.2-4.5-17.5-6.8-27.9-6.8c-8.6,0-16.4,1.8-23.4,5.5
			c-7,3.7-12.9,8.5-17.8,14.6c-4.9,6.1-8.7,13-11.3,20.9c-2.6,7.8-4,15.9-4,24.3c0,8.8,1.5,17.1,4.5,25c3,7.9,7.1,14.8,12.4,20.8
			c5.3,5.9,11.5,10.7,18.6,14.2c7.1,3.5,14.8,5.3,23.2,5.3c8.9,0,17.5-2.1,25.6-6.3s15.9-10.8,23.4-19.9v-25.9h-34.7v-11.9h47.7
			v76.7h-13V337.5z"/>
		<path class="st0" d="M504.5,362.6c-8.3,0-16-1.6-22.8-4.7c-6.9-3.1-12.9-7.4-17.9-12.9c-5.1-5.4-9-11.7-11.8-18.9
			c-2.8-7.2-4.2-14.7-4.2-22.6c0-8.1,1.4-15.7,4.3-22.8c2.9-7.2,6.8-13.5,11.9-18.9c5.1-5.4,11-9.7,17.9-13
			c6.9-3.2,14.4-4.8,22.6-4.8c8.2,0,15.8,1.6,22.7,4.8c7,3.2,13,7.5,18,13c5.1,5.4,9,11.7,11.9,18.9c2.9,7.2,4.3,14.8,4.3,22.8
			c0,7.9-1.4,15.5-4.2,22.6c-2.8,7.2-6.7,13.5-11.8,18.9c-5.1,5.4-11.1,9.7-18,12.9C520.5,361,512.9,362.6,504.5,362.6z M463,303.7
			c0,6.4,1.1,12.4,3.3,17.9c2.2,5.5,5.2,10.3,8.9,14.5c3.7,4.2,8.1,7.4,13.2,9.8c5.1,2.3,10.4,3.5,16.1,3.5s11.1-1.2,16.1-3.6
			c5.1-2.4,9.5-5.7,13.3-9.9c3.8-4.2,6.8-9,9-14.6c2.2-5.6,3.3-11.6,3.3-18c0-6.3-1.1-12.3-3.3-17.9c-2.2-5.6-5.2-10.5-9-14.7
			c-3.8-4.2-8.2-7.5-13.3-9.9c-5.1-2.4-10.4-3.6-16.1-3.6s-11.1,1.2-16,3.6c-5,2.4-9.4,5.8-13.2,10c-3.8,4.2-6.8,9.2-9,14.8
			C464.1,291.2,463,297.3,463,303.7z"/>
	</g>
</g>
</svg>
