<?xml version="1.0" encoding="utf-8"?>
<!-- Generator: Adobe Illustrator 21.0.1, SVG Export Plug-In . SVG Version: 6.00 Build 0)  -->
<svg version="1.1" id="Слой_1" xmlns="http://www.w3.org/2000/svg" xmlns:xlink="http://www.w3.org/1999/xlink" x="0px" y="0px"
	 viewBox="0 0 1090 600" style="enable-background:new 0 0 1090 600;" xml:space="preserve">

<g>
	<path class="st0" d="M172.4,346H134c-8,0-14.5-6.5-14.5-14.5v-38.4c0-8,6.5-14.5,14.5-14.5h38.4c8,0,14.5,6.5,14.5,14.5v38.4
		C186.9,339.5,180.4,346,172.4,346z"/>
	<circle class="st0" cx="153.2" cy="312.3" r="19.2"/>
	<circle class="st0" cx="144.4" cy="312.3" r="3.6"/>
	<circle class="st0" cx="162.4" cy="312.1" r="3.6"/>
	<path class="st0" d="M226.5,334.1H223c-1.9,0-3.5-1.6-3.5-3.5v-35.4c0-1.9,1.6-3.5,3.5-3.5h3.5c1.9,0,3.5,1.6,3.5,3.5v35.4
		C230,332.5,228.5,334.1,226.5,334.1z"/>
	<line class="st1" x1="201.1" y1="301.3" x2="219.4" y2="301.3"/>
	<line class="st1" x1="201.1" y1="323.5" x2="219.4" y2="323.5"/>
	<path class="st2" d="M230,297.9c1.6,0,8.4-0.2,9.9,0.2c6.6,1.8,11.3,7.6,11.3,14.3c0,7-5.1,12.8-12,14.5c-1.3,0.3-7.9,0.3-9.2,0.3"
		/>
	<path class="st2" d="M379.9,375.1c0.1-5.8,0-36.5,0-36.5c0-0.8,0-1.7,0.1-2.6c0.1-1.7,0.4-3.2,0.7-4.5c0.3-1.1,0.9-2.7,1.9-4.5
		c2.6-4.3,6.4-6.2,7.9-7c3.2-1.5,6.1-2,8.1-2c34.2,0,68.4,0,102.6,0l0,0c0,0,31.4-2.7,31.5-32.2"/>
	<path class="st2" d="M338.1,261.4c0,10.5,0.4,113.5,0.4,113.5"/>
	<path class="st2" d="M251.3,312.4l30.5-0.1c0,0,15.8-0.9,15.9-21c0.1-20.1,0-32,0-32"/>
	<path class="st2" d="M456.6,249.5c0.1,0.9,0.2,1.9,0.2,2.9c0,14-11.4,25.4-25.4,25.4c-14,0-25.4-11.4-25.4-25.4
		s11.4-25.4,25.4-25.4c2.6,0,5.2,0.4,7.6,1.1"/>
	<path class="st2" d="M465.1,243.3c-0.9,0.1-1.8,0.2-2.8,0.2c-10.4,0-19.4-6.3-23.3-15.3c-1.3-3.1-2.1-6.5-2.1-10.1
		c0-14,11.4-25.4,25.4-25.4c7.5,0,14.3,3.3,19,8.5"/>
	<ellipse transform="matrix(0.5 -0.866 0.866 0.5 104.488 590.8152)" class="st2" cx="563.9" cy="204.9" rx="25.4" ry="25.4"/>
	<path class="st2" d="M538.6,254.9c0-4.2,1.2-8.5,3.5-12.4c4.5-7.6,12.9-11.8,21.2-12.2"/>
	<path class="st2" d="M609.8,245.2c-3.4-0.4-6.8-1.4-10-3.3c-12.1-7-16.3-22.5-9.3-34.7c7-12.1,22.5-16.3,34.7-9.3
		c10,5.8,14.6,17.4,12,28.1"/>
	<path class="st2" d="M628,228.9c7.5-4.1,16.9-4.3,24.8,0.3c12.1,7,16.3,22.5,9.3,34.7c-5.1,8.8-14.7,13.4-24.2,12.6"/>
	<path class="st2" d="M659.2,268c1.3,0.5,2.1,0.9,3.4,1.6c12.1,7,16.3,22.5,9.3,34.7s-22.5,16.3-34.7,9.3
		c-7.8-4.5-12.3-12.5-12.7-20.8"/>
	<path class="st2" d="M599.8,268.5c13.8,0.4,23.9,10.7,24.7,24.7"/>
	<path class="st2" d="M572.1,297.3"/>
	<path class="st2" d="M598.3,291.4c0.4,4.7-0.6,9.4-3,13.6c-7.3,12.6-25.2,15.9-40,7.4c-11.1-6.4-17.3-17.6-16.7-28.2"/>
	<path class="st2" d="M449.4,292.5c0.1,4.5-1,9-3.4,13.2c-3.8,6.6-10.2,10.9-17.1,12.2"/>
	<path class="st2" d="M442.3,275.3"/>
	<path class="st2" d="M419.1,317.8c-2.7-0.5-5.3-1.5-7.8-2.9c-12.1-7-16.3-22.5-9.3-34.7c2.7-4.6,6.6-8.1,11-10.2"/>
	<path class="st2" d="M509.6,231.3c-1,0.1-1.9,0.2-2.9,0.2c-14,0-25.4-11.4-25.4-25.4s11.4-25.4,25.4-25.4c14,0,26.1,11.4,26.1,25.4
		"/>
	<path class="st2" d="M532.9,256.8"/>
	<path class="st2" d="M482.1,256.8c0-14,11.4-25.4,25.4-25.4"/>
	<path class="st2" d="M449.4,293.5c0-14,11.4-25.4,25.4-25.4c14,0,25.4,11.4,25.4,25.4"/>
	<path class="st2" d="M474.8,317.8"/>
	<line class="st2" x1="538.6" y1="285.2" x2="538.6" y2="203.5"/>
	<polyline class="st3" points="572.1,317.1 708.5,317.1 946,317 	"/>
	<path class="st2" d="M297.7,259.5c0-11.1,9.1-19.3,20.2-19.3c11.1,0,20.2,10,20.2,21.2"/>
	<path class="st2" d="M379.9,374.1c0,11.5-9.5,19.5-21,19.5c-11.5,0-20.4-8.5-20.4-20"/>
	<line class="st4" x1="532.8" y1="206.1" x2="532.8" y2="286.1"/>
</g>
</svg>
