<svg><g id="Слой_2" data-name="Слой 2"><g id="Слой_1-2" data-name="Слой 1"><path class="cls-1" d="M304.07,181.76h0Z"/><rect class="cls-2" x="2.5" y="101.08" width="67.4" height="67.4" rx="14.5" ry="14.5"/><circle class="cls-2" cx="36.2" cy="134.78" r="19.17"/><circle class="cls-2" cx="27.48" cy="134.78" r="3.57"/><circle class="cls-2" cx="45.44" cy="134.54" r="3.57"/><rect class="cls-2" x="102.46" y="114.1" width="10.61" height="42.44" rx="3.54" ry="3.54"/><line class="cls-3" x1="84.13" y1="123.75" x2="102.46" y2="123.75"/><line class="cls-3" x1="84.13" y1="145.94" x2="102.46" y2="145.94"/><path class="cls-4" d="M113.07,120.35c1.59,0,8.43-.24,9.88.16a15.11,15.11,0,0,1,11.34,14.32c0,7-5.1,12.85-12,14.49-1.26.3-7.88.28-9.24.28"/><path class="cls-4" d="M263,197.55c.12-5.79,0-36.48,0-36.48,0-.81,0-1.69.08-2.61a29.39,29.39,0,0,1,.71-4.55,17.45,17.45,0,0,1,1.95-4.51,18.58,18.58,0,0,1,7.93-7,20.58,20.58,0,0,1,8.1-2H384.3s31.36-2.66,31.52-32.24"/><path class="cls-4" d="M221.11,83.84c0,10.49.36,113.47.36,113.47"/><path class="cls-4" d="M134.29,134.84l30.55-.06s15.76-.9,15.88-21,0-32,0-32"/><path class="cls-4" d="M339.62,72a25.67,25.67,0,0,1,.16,2.86,25.37,25.37,0,1,1-17.84-24.25"/><path class="cls-4" d="M348.11,65.82a25.67,25.67,0,0,1-2.78.15,25.39,25.39,0,1,1,19-42.27"/><circle class="cls-4" cx="446.93" cy="27.4" r="25.39" transform="matrix(0.5, -0.87, 0.87, 0.5, 199.74, 400.75)"/><path class="cls-4" d="M421.58,77.37A24.75,24.75,0,0,1,425,65c4.49-7.59,12.87-11.78,21.16-12.21"/><path class="cls-4" d="M492.79,67.67a25.39,25.39,0,1,1,27.36-19.15"/><path class="cls-4" d="M511,51.42A25.4,25.4,0,1,1,520.9,99"/><path class="cls-4" d="M542.2,90.51a19.17,19.17,0,0,1,3.4,1.64,25.39,25.39,0,1,1-38.06,23.17"/><path class="cls-4" d="M482.8,91c13.84.37,23.93,10.7,24.74,24.75"/><path class="cls-4" d="M455.12,119.79"/><path class="cls-4" d="M481.31,113.83a23.4,23.4,0,0,1-3,13.58c-7.29,12.63-25.21,15.94-40,7.39-11.09-6.4-17.29-17.64-16.65-28.18"/><path class="cls-4" d="M332.43,114.93a25.4,25.4,0,0,1-20.5,25.39"/><path class="cls-4" d="M325.33,97.79"/><path class="cls-4" d="M302.13,140.33a25.4,25.4,0,0,1-6-47.84"/><path class="cls-4" d="M392.59,53.77a25.66,25.66,0,0,1-2.9.16,25.39,25.39,0,1,1,0-50.78c14,0,26.13,11.37,26.13,25.39"/><path class="cls-4" d="M415.92,79.33"/><path class="cls-4" d="M365.14,79.33a25.39,25.39,0,0,1,25.39-25.39"/><path class="cls-4" d="M332.43,116a25.39,25.39,0,1,1,50.78,0"/><path class="cls-4" d="M357.83,140.32"/><line class="cls-4" x1="421.58" y1="107.71" x2="421.58" y2="26"/><polyline class="cls-5" points="455.12 139.54 591.54 139.54 1165.03 139.48"/><path class="cls-4" d="M180.72,81.93c0-11.14,9.08-19.26,20.22-19.26s20.17,10,20.17,21.17"/><path class="cls-4" d="M262.95,196.62c0,11.5-9.52,19.5-21,19.5s-20.44-8.52-20.44-20"/><line class="cls-6" x1="415.81" y1="28.54" x2="415.81" y2="108.6"/></g></g></svg>