<svg xmlns="http://www.w3.org/2000/svg" viewBox="0 0 64 50"><defs><style>.cls-1{fill:#231f20;}</style></defs><title>notebook</title><g id="Слой_2" data-name="Слой 2"><g id="Responsive_Icons" data-name="Responsive Icons"><path class="cls-1" d="M56,39V5a1,1,0,0,0-1-1H9A1,1,0,0,0,8,5V39a1,1,0,0,0,1,1H55A1,1,0,0,0,56,39Zm-2-1H10V6H54Z"/><path class="cls-1" d="M63,42H60V4a4,4,0,0,0-4-4H8A4,4,0,0,0,4,4V42H1a1,1,0,0,0-1,1v3a4,4,0,0,0,4,4H60a4,4,0,0,0,4-4V43A1,1,0,0,0,63,42ZM6,4A2,2,0,0,1,8,2H56a2,2,0,0,1,2,2V42H36a1,1,0,0,0-1,1v1H29V43a1,1,0,0,0-1-1H6ZM62,46a2,2,0,0,1-2,2H4a2,2,0,0,1-2-2V44H27v1a1,1,0,0,0,1,1h8a1,1,0,0,0,1-1V44H62Z"/></g></g></svg>