<svg xmlns="http://www.w3.org/2000/svg" viewBox="0 0 64 64"><defs><style>.cls-1{fill:#231f20;}</style></defs><title>pencil</title><g id="Слой_2" data-name="Слой 2"><g id="Responsive_Icons" data-name="Responsive Icons"><path class="cls-1" d="M62.83,12.49,51.51,1.17a4,4,0,0,0-5.66,0L.6,46.43A2.45,2.45,0,0,0,0,48V62a2,2,0,0,0,2,2H16a2.44,2.44,0,0,0,1.57-.6L62.83,18.14A4,4,0,0,0,62.83,12.49Zm-25.47,0L40.89,16,7,50,3.41,46.44Zm-29,38.89L42.31,17.45l4.24,4.24L12.61,55.64ZM3,62a1,1,0,0,1-1-1V59.42L4.58,62Zm4.41,0L2,56.59V47.86L16.14,62Zm10.15-1.41L14,57,48,23.11l3.54,3.54ZM52.91,25.23,38.77,11.09,41.6,8.26,55.74,22.4Zm8.5-8.5L57.16,21,43,6.84l4.26-4.26a2,2,0,0,1,2.83,0L61.41,13.9A2,2,0,0,1,61.41,16.73Z"/></g></g></svg>