<?xml version="1.0" encoding="utf-8"?>
<!-- Generator: Adobe Illustrator 21.0.1, SVG Export Plug-In . SVG Version: 6.00 Build 0)  -->
<svg version="1.1" id="Слой_1" xmlns="http://www.w3.org/2000/svg" xmlns:xlink="http://www.w3.org/1999/xlink" x="0px" y="0px"
	 viewBox="0 0 600 600" style="enable-background:new 0 0 600 600;" xml:space="preserve">
<style type="text/css">
	.st0{fill:#FFFFFF;}
	.st1{fill:#FFFFFF;stroke:#FFFFFF;stroke-width:6;stroke-miterlimit:10;}
	.st2{fill:#FFFFFF;stroke:#FFFFFF;stroke-width:6;stroke-linecap:round;stroke-linejoin:round;stroke-miterlimit:10;}
	.st3{fill:#D12938;}
</style>
<g>
	<path class="st0" d="M279,344.9c-0.1,0-0.3,0-0.4,0c-3.6-0.2-6.3-3.3-6-6.9c0.6-9.8-1.5-12.3-1.8-12.7h-45.9
		c-58.2,0-105.6-47.4-105.6-105.6c0-58.2,47.4-105.6,105.6-105.6c16.2,0,31.8,3.6,46.3,10.7c3.2,1.6,4.5,5.4,3,8.6
		c-1.6,3.2-5.4,4.5-8.6,3c-12.7-6.2-26.4-9.4-40.6-9.4c-51.1,0-92.7,41.6-92.7,92.7s41.6,92.7,92.7,92.7h45.9c2.5-0.1,6,0.7,9,3.6
		c4.6,4.4,6.5,11.9,5.8,22.9C285.2,342.3,282.4,344.9,279,344.9z M271.6,325.3C271.6,325.3,271.6,325.3,271.6,325.3
		C271.6,325.3,271.6,325.3,271.6,325.3z"/>
	<path class="st0" d="M289.8,301.1c-1.8,0-3.6-0.8-4.9-2.2c-2.3-2.7-2.1-6.8,0.6-9.1c12.1-10.5,21.4-24.1,26.7-39.1
		c1.2-3.4,4.9-5.1,8.2-3.9c3.4,1.2,5.1,4.9,3.9,8.2c-6.1,17.2-16.6,32.6-30.4,44.6C292.8,300.6,291.3,301.1,289.8,301.1z"/>
	<path class="st1" d="M171.1,325"/>
	<path class="st0" d="M265.7,427.6H183c-3.6,0-6.5-2.9-6.5-6.5s2.9-6.5,6.5-6.5h82.6c3.7,0,6.9-2.3,6.9-4.9c0-2.6-3.2-4.9-6.9-4.9
		h-81.7c-10.9,0-19.8-8-19.8-17.8c0-9.6,8.4-17.4,18.9-17.8c0.2,0,0.3,0,0.5,0h82.6c3.7,0,6.9-2.3,6.9-4.9c0-2.6-3.2-4.9-6.9-4.9
		h-82.6c-0.8,0-17.8-0.4-18.9-29.1c-0.1-3.6,2.6-6.6,6.2-6.7c3.5-0.2,6.6,2.6,6.7,6.2c0.5,12.3,4.3,16.3,6.3,16.7h82.3
		c10.9,0,19.8,8,19.8,17.8c0,9.8-8.9,17.8-19.8,17.8h-82.2c-3.7,0-6.9,2.3-6.9,4.9c0,2.6,3.2,4.9,6.9,4.9h82.6c0.4,0,0.7,0,1,0.1
		c10,0.9,17.8,8.5,17.8,17.7C285.5,419.6,276.6,427.6,265.7,427.6z M183.7,346.6c-0.1,0-0.1,0-0.1,0h0.2
		C183.7,346.6,183.7,346.6,183.7,346.6z"/>
	<path class="st2" d="M207.4,435.5"/>
	<path class="st0" d="M224.4,454c-0.8,0-1.6,0-2.4-0.1c-12.8-1.2-20.3-12-20.6-12.5c-2-2.9-1.2-7,1.7-9c2.9-2,6.9-1.2,9,1.7
		c0.1,0.2,4.6,6.3,11.2,6.9c4.9,0.4,10.2-2.2,15.9-7.8c2.5-2.5,6.6-2.5,9.1,0c2.5,2.5,2.5,6.6,0,9.1
		C240.5,450.1,232.5,454,224.4,454z"/>
</g>
<path class="st3" d="M153.7,341.3h0.2C153.8,341.3,153.8,341.3,153.7,341.3C153.7,341.3,153.7,341.3,153.7,341.3z"/>
<g>
	<path class="st0" d="M493,125c0.5,2.7,0.9,5.7,1.3,8.8c0.4,3.1,0.7,6.3,1,9.5c0.2,3.1,0.4,6.2,0.5,9.2c0.1,3,0.2,5.7,0.2,8.2
		c0,5.8-0.5,11.6-1.6,17.2c-1.1,5.6-2.9,10.7-5.5,15.2c-2.6,4.5-6.2,8-10.8,10.7c-4.6,2.7-10.3,4-17.2,4c-10.2,0-18.6-2.4-25-7.1
		c-6.4-4.8-10.9-11.1-13.4-19.1l-5.5,8.7l-47.6,28.5v-28.2l48.9-28.4l2.3-12.8h-51.2V125H493z M474.3,162.5c0-2.5-0.1-5-0.2-7.4
		c-0.1-2.4-0.4-4.3-0.7-5.6h-36.2v10.3c0,6.8,1.5,12.2,4.6,16.2c3.1,4,8.2,6.1,15.3,6.1c5.4,0,9.5-1.7,12.6-5
		C472.8,173.8,474.3,168.9,474.3,162.5z"/>
	<path class="st0" d="M494.2,232.4v74h-21.8v-49.6h-29.1V302h-21.8v-45.1h-30.5v50.5h-21.8v-74.9H494.2z"/>
	<path class="st0" d="M494.2,325.5c0.4,2.5,0.7,5.3,0.9,8.5c0.2,3.1,0.4,6.4,0.5,9.7c0.1,3.3,0.2,6.6,0.3,9.7c0.1,3.1,0.1,6,0.1,8.5
		c0,11.1-1.5,20.5-4.6,28.4c-3.1,7.8-7.4,14.2-13,19.1c-5.6,4.9-12.2,8.4-20,10.7c-7.7,2.3-16.2,3.4-25.5,3.4
		c-8.4,0-16.6-1.1-24.4-3.2c-7.8-2.1-14.8-5.7-20.9-10.7c-6.1-5-10.9-11.6-14.6-19.7c-3.7-8.1-5.5-18.2-5.5-30.2
		c0-1.9,0.1-4.4,0.2-7.6c0.1-3.2,0.3-6.4,0.4-9.8c0.2-3.4,0.4-6.6,0.5-9.7c0.2-3.1,0.4-5.4,0.6-7H494.2z M474.3,363.8
		c0-2.6-0.1-5.3-0.2-7.9c-0.1-2.7-0.3-4.7-0.5-6h-83.7c-0.1,0.5-0.2,1.3-0.3,2.4c-0.1,1.1-0.1,2.3-0.2,3.7c-0.1,1.3-0.1,2.6-0.2,3.7
		c-0.1,1.2-0.1,2.1-0.1,2.7c0,6.9,1.2,12.6,3.7,17.2c2.4,4.6,5.7,8.2,9.7,10.9c4,2.7,8.7,4.5,14,5.6c5.3,1.1,10.7,1.6,16.3,1.6
		c4.9,0,9.8-0.5,14.7-1.4c4.9-1,9.4-2.7,13.3-5.3c3.9-2.6,7.1-6,9.6-10.4C473,376.2,474.3,370.6,474.3,363.8z"/>
	<path class="st0" d="M381.2,432.3c4.2,0,7.5,1.3,9.9,3.9c2.4,2.6,3.7,6.1,3.7,10.3c0,4.5-1.2,8.1-3.7,10.7
		c-2.4,2.6-5.7,3.9-9.9,3.9c-4.2,0-7.5-1.3-10-3.9c-2.5-2.6-3.7-6.2-3.7-10.7c0-4.3,1.2-7.7,3.7-10.3
		C373.7,433.6,377,432.3,381.2,432.3z"/>
</g>
</svg>
