<svg xmlns="http://www.w3.org/2000/svg" viewBox="0 0 64 64"><defs><style>.cls-1{fill:#231f20;}</style></defs><title>rocet</title><g id="Слой_2" data-name="Слой 2"><g id="Responsive_Icons" data-name="Responsive Icons"><path class="cls-1" d="M63,42.29,48,33.25h0c0-.42,0-.84,0-1.27C48,16,40.31,5.13,33.11.34a2,2,0,0,0-2.22,0C23.69,5.13,16,16,16,32c0,.43,0,.84,0,1.27h0L1,42.29A2,2,0,0,0,0,44v6a2,2,0,0,0,2,2H19.19c.52,1.63.9,2.62,1,2.74A2,2,0,0,0,22,56h5c0,4.79,2.59,8,5,8s5-3.17,5-7.89c0,0,0-.07,0-.11h5a2,2,0,0,0,1.86-1.26c0-.12.44-1.12,1-2.74H62a2,2,0,0,0,2-2V44A2,2,0,0,0,63,42.29ZM32,2c6,4,14,14,14,30a62.75,62.75,0,0,1-1.22,12H19.22A62.75,62.75,0,0,1,18,32C18,16,26,6,32,2ZM2,44l14.12-8.47A68.09,68.09,0,0,0,17.59,46H2Zm0,6V48H18.06c.18.73.36,1.4.54,2v0ZM32,62c-1,0-3-2-3-6h6C35,60,33,62,32,62Zm10-8H22a58.68,58.68,0,0,1-2.36-8H44.36A58.68,58.68,0,0,1,42,54Zm20-4H45.41v0c.18-.63.36-1.3.54-2H62Zm0-4H46.41a68.09,68.09,0,0,0,1.47-10.47L62,44Z"/><path class="cls-1" d="M32,30a6,6,0,1,0-6-6A6,6,0,0,0,32,30Zm0-10a4,4,0,1,1-4,4A4,4,0,0,1,32,20Z"/></g></g></svg>